<?xml version="1.0" encoding="UTF-8" standalone="no"?>
<!-- Created with Inkscape (http://www.inkscape.org/) -->

<svg
   xmlns:dc="http://purl.org/dc/elements/1.1/"
   xmlns:cc="http://creativecommons.org/ns#"
   xmlns:rdf="http://www.w3.org/1999/02/22-rdf-syntax-ns#"
   xmlns:svg="http://www.w3.org/2000/svg"
   xmlns="http://www.w3.org/2000/svg"
   xmlns:sodipodi="http://sodipodi.sourceforge.net/DTD/sodipodi-0.dtd"
   xmlns:inkscape="http://www.inkscape.org/namespaces/inkscape"
   width="64px"
   height="64px"
   id="svg3039"
   version="1.1"
   inkscape:version="0.48.2 r9819">
  <defs
     id="defs3041">
    <inkscape:perspective
       sodipodi:type="inkscape:persp3d"
       inkscape:vp_x="0 : 32 : 1"
       inkscape:vp_y="0 : 1000 : 0"
       inkscape:vp_z="64 : 32 : 1"
       inkscape:persp3d-origin="32 : 21.333333 : 1"
       id="perspective4658" />
  </defs>
  <sodipodi:namedview
     id="base"
     pagecolor="#ffffff"
     bordercolor="#666666"
     borderopacity="1.0"
     inkscape:pageopacity="0.0"
     inkscape:pageshadow="2"
     inkscape:zoom="2.434366"
     inkscape:cx="126.31659"
     inkscape:cy="75.971998"
     inkscape:current-layer="layer1"
     showgrid="true"
     inkscape:document-units="px"
     inkscape:grid-bbox="true"
     inkscape:window-width="1280"
     inkscape:window-height="979"
     inkscape:window-x="0"
     inkscape:window-y="0"
     inkscape:window-maximized="1" />
  <metadata
     id="metadata3044">
    <rdf:RDF>
      <cc:Work
         rdf:about="">
        <dc:format>image/svg+xml</dc:format>
        <dc:type
           rdf:resource="http://purl.org/dc/dcmitype/StillImage" />
      </cc:Work>
    </rdf:RDF>
  </metadata>
  <g
     id="layer1"
     inkscape:label="Layer 1"
     inkscape:groupmode="layer">
    <text
       xml:space="preserve"
       style="font-size:44.7176857px;font-style:normal;font-weight:normal;line-height:125%;letter-spacing:0px;word-spacing:0px;fill:#000000;fill-opacity:1;stroke:none;font-family:Sans"
       x="1.7302982"
       y="24.872272"
       id="text3481"
       sodipodi:linespacing="125%"
       transform="scale(0.91749281,1.0899268)"><tspan
         sodipodi:role="line"
         id="tspan3483"
         x="1.7302982"
         y="24.872272"
         style="font-style:normal;font-variant:normal;font-weight:normal;font-stretch:normal;line-height:125%;letter-spacing:-0.01px;writing-mode:lr-tb;font-family:Consolas;-inkscape-font-specification:Consolas"
         dx="-0.0099999998">yo</tspan></text>
    <path
       style="fill:#000000;stroke:#ffff00"
       id="path3623"
       d="m 24.685087,13.146604 c -0.01359,-0.759551 0.363881,-1.491938 0.763211,-2.118649 0.03777,-0.03567 0.0635,-0.121798 0.113299,-0.107001 0.0461,0.0137 0.01298,0.09583 0.01079,0.143874 -0.0062,0.137106 -0.0099,0.275436 -0.03603,0.410162 -0.04463,0.229677 0.0052,-0.331041 -0.03984,-0.554 -0.135763,-0.69997 -0.02004,-1.4447954 0.215254,-2.1125714 0.244793,-0.46228 -0.08968,0.994267 0.112813,-0.806164 0.03067,-0.272717 0.10037,-0.539618 0.150555,-0.809427 0.168798,-0.68021 0.441324,-1.309676 0.77374,-1.923908 0.185459,-0.313042 0.390932,-0.627763 0.627621,-0.906415 0.01309,-0.0154 0.0414,-0.01102 0.05464,-0.0263 0.05448,-0.06292 0.284702,-0.443524 0.293955,-0.458462 0.410075,-0.676463 0.958399,-1.236874 1.552669,-1.750236 0.596236,-0.460476 1.270668,-0.799884 1.999306,-0.995411 0.110237,-0.02958 0.227778,-0.01841 0.340437,-0.03672 -0.04801,0.0316 -0.109058,0.0492 -0.144044,0.09481 -0.01541,0.02009 0.05151,0.0016 0.07573,-0.0058 0.08078,-0.02464 0.157906,-0.05997 0.236976,-0.08964 0.39173,-0.14701779 0.773825,-0.25964029 1.18256,-0.34971989 0.991245,-0.47857445 2.017976,0.1368208 3.012565,0.076491 0.550754,-0.085394 1.272136,0.018454 -1.163417,-0.025645 -0.06675,-0.00121 0.132601,-0.015944 0.198528,-0.02646 0.461588,-0.073625 0.07251,-0.031477 0.568464,-0.073255 0.916042,-0.00303 1.921045,0.00186 2.785125,0.1569039 0.594389,0.1066497 1.323881,0.75936459 1.767681,1.15016059 0.154657,0.121303 0.272852,0.284471 0.427334,0.405814 0.008,0.0062 0.0066,-0.02835 0.01635,-0.02554 0.04296,0.01241 0.08026,0.03992 0.117751,0.06429 0.180481,0.11733 0.306466,0.224815 0.478517,0.361025 0.532946,0.238385 0.968791,0.712569 1.376736,1.121384 0.555632,0.560533 0.901466,1.282283 1.240435,1.983808 0.04961,0.08038 0.09452,0.16385 0.148819,0.241136 0.201825,0.287263 0.008,-0.09814 0.281169,0.34325 0.154664,0.249874 0.260484,0.524067 0.420866,0.771024 0.169737,0.4979 0.561103,0.868525 0.811314,1.320458 0.08463,0.152869 0.147807,0.316673 0.221711,0.475009 0.08898,0.251139 0.18416,0.500165 0.266935,0.753417 0.107941,0.3302488 0.213688,0.6621928 0.290314,1.0010798 0.03484,0.154081 0.05471,0.311201 0.07819,0.467417 0.03739,0.248723 0.0727,0.282017 0.0049,0.20005 0.323443,0.503245 -0.182928,-0.406918 -0.139488,-0.304178 0.0916,0.216649 0.223243,0.414303 0.324664,0.626533 1.173803,2.456252 -0.222432,-0.399483 0.492975,1.058869 0.37325,1.025377 0.472197,2.120332 0.375157,3.201179 0.0081,0.544922 -0.236249,1.073692 -0.236858,1.613809 -0.04743,0.439175 0.114121,0.856257 0.156486,1.288008 0.01331,0.135617 0.01145,0.272295 0.01718,0.408443 -0.0184,0.851614 -0.04016,1.686525 -0.313345,2.505317 -0.06584,0.197346 -0.166578,0.381279 -0.249866,0.571919 -0.364418,0.711322 -0.866177,1.3504 -1.515112,1.823262 -0.433364,0.315781 -0.282465,0.271858 -0.570053,0.323485 0.0033,-0.01855 0.02725,-0.06265 0.0098,-0.05565 -0.258265,0.103224 -0.503092,0.365218 -0.696102,0.545051 -0.652108,0.634665 -1.460965,0.987894 -2.312465,1.258362 -0.17292,-0.03979 0.0063,-0.01052 -0.346828,0.0802 -0.0091,0.0023 -0.01307,-0.0185 -0.0223,-0.01703 -0.201654,0.03202 -0.417107,0.137808 -0.602772,0.210151 -0.563093,0.173384 -1.189169,0.447836 -1.786966,0.453873 -4.11403,0.04155 -0.986776,-0.09953 -2.358322,-0.03388 -0.666801,-0.02979 -2.982712,0.01255 -0.06674,-0.01771 -0.507542,-0.08127 -1.021396,-0.0037 -1.532607,-0.0061 -0.96685,0.04126 -1.945109,0.09277 -2.857578,-0.272316 -0.393988,-0.157639 -0.746353,-0.378596 -1.123771,-0.566126 -0.745709,-0.31822 -1.451385,-0.749753 -2.10519,-1.229514 -0.808369,-0.611255 -1.293483,-1.401781 -1.728205,-2.298403 -0.278433,-0.521871 -0.54455,-1.056089 -0.751607,-1.611459 -0.08963,-0.298541 -0.309471,-0.53303 -0.441098,-0.808903 -0.165396,-0.346647 -0.288423,-0.717878 -0.450879,-1.06755 -0.41862,-0.886342 -0.718195,-1.833156 -0.922358,-2.791671 -0.08059,-0.756381 -0.103943,-1.516551 -0.03932,-2.27413 0.0122,0.06735 0.02441,0.134709 0.03661,0.202063 -0.08148,-0.435335 6.075096,-1.587568 6.156572,-1.152233 l 0,0 c 0.03984,0.190774 0.07967,0.381548 0.119509,0.572321 0.146855,0.515358 0.175984,1.041466 0.277986,1.563318 0.03057,0.190282 0.03991,0.427485 0.112864,0.604409 0.15051,0.364996 0.398619,0.679405 0.510215,1.06262 0.302408,0.752172 0.625761,1.499584 0.756638,2.305856 0.06675,0.292423 0.224179,0.529563 0.38213,0.783011 0.191588,0.234968 -0.01896,-0.08699 0.04366,-0.108107 0.01727,-0.0058 0.477475,0.295639 0.514937,0.312639 0.367521,0.249822 0.706246,0.542922 1.114958,0.723703 0.08037,0.0327 0.158347,0.07203 0.241107,0.09809 0.02831,0.0089 0.0988,0.03378 0.08887,0.0058 -0.01756,-0.04946 -0.09744,-0.05309 -0.122103,-0.09943 -0.0097,-0.0182 0.07096,-0.0035 0.05855,-0.01998 -0.300836,-0.399396 -2.257818,1.013726 -1.498107,-0.07652 0.50432,-0.01285 1.01123,0.02463 1.509279,-0.08163 1.265682,-0.01253 2.550321,-0.08419 3.800765,0.164344 0.754483,0.240232 0.098,0.0072 -1.352457,0.05317 -0.01428,4.52e-4 -0.140813,0.09721 -0.137017,0.128008 0.0084,0.0681 0.305912,-0.07571 0.205089,-0.01749 0.473442,-0.161836 0.952893,-0.386064 1.44069,-0.499493 0.05601,-0.01302 0.115811,0.01848 0.172336,0.0079 0.112946,-0.02113 0.21957,-0.06784 0.329354,-0.101762 -0.01999,0.02695 -0.04721,0.0498 -0.05996,0.08083 -0.0446,0.108563 0.127546,-0.002 0.121391,0.02817 -0.0152,0.07455 -0.365386,0.376812 0.0072,0.126506 0.193399,-0.0512 0.0384,0.0012 0.348507,-0.267526 0.303292,-0.262856 0.632481,-0.49136 0.929557,-0.7616 0.08695,-0.06633 0.17389,-0.132664 0.260834,-0.198996 -10e-4,0.02278 -0.02527,0.06306 -0.0031,0.06833 0.04181,0.0099 0.08382,-0.05848 0.122591,-0.03994 0.0703,0.03361 -0.22753,0.529014 -0.206415,0.583877 -0.06967,0.234705 -0.0029,-0.012 -0.06602,0.3531 -0.002,0.01127 -0.0031,-0.02272 -0.0033,-0.03416 -0.007,-0.39377 0.0031,-0.291684 -0.01502,-0.686383 -0.0055,-0.119283 -0.01369,-0.238425 -0.02053,-0.357638 0.01686,-0.602433 0.188452,-1.184848 0.112317,-1.790462 0.0076,-0.592026 -0.05799,-1.183396 -0.05272,-1.775802 -0.02299,-0.480466 0.0355,-0.9588 0.0068,-1.438623 0.0055,-0.05895 -0.03175,-0.211288 0.01642,-0.176854 0.10032,0.07173 0.128801,0.210647 0.18464,0.320605 0.03814,0.0751 0.129844,0.156004 0.09672,0.233449 -0.02457,0.05745 -0.10454,-0.07062 -0.146602,-0.116824 -0.390877,-0.429416 -0.397164,-0.524699 -0.719669,-1.087196 -0.271566,-0.625549 -0.512416,-1.229801 -0.626051,-1.904245 -0.0472,-0.280155 -0.121687,-0.272097 0.0067,-0.262798 -0.211371,-0.43786 -0.344653,-0.912036 -0.703804,-1.265823 -0.345314,-0.5691488 -0.673066,-1.1490038 -0.900778,-1.7771218 -0.02765,-0.04916 -0.256964,-0.384903 -0.294731,-0.382891 -0.01782,9.49e-4 0.01508,0.06254 -3.25e-4,0.05353 -0.05466,-0.03199 -0.0904,-0.08872 -0.135604,-0.133079 -0.316604,-0.281497 -0.691372,-0.485672 -1.004887,-0.772311 -0.337963,-0.27744 -0.664655,-0.570504 -1.016023,-0.829387 0.158079,0.168998 0.358038,0.453589 0.603299,0.489653 2.481131,0.364838 2.036484,0.02296 1.147183,0.104905 -0.275431,-0.01424 -0.550929,-0.06794 -0.826446,-0.06885 -0.778511,-0.0026 -1.543871,0.05987 -2.313418,-0.03283 -0.223009,-0.02605 -0.448428,-0.06349 -0.672979,-0.07379 -0.06549,-0.003 -0.260485,0.02652 -0.194933,0.02602 0.520051,-0.0039 1.039864,-0.02361 1.559796,-0.03542 0.0053,-0.0095 0.07056,-0.124066 0.07147,-0.13845 0.0034,-0.05331 -0.109871,-0.02412 -0.16013,-0.006 -0.272942,0.09822 -0.524689,0.250874 -0.806191,0.327659 -0.05433,0.0076 -0.109176,0.01225 -0.162989,0.02295 -0.0841,0.01672 -0.189759,0.119898 -0.250339,0.05921 -0.05213,-0.05222 0.122092,-0.08349 0.177852,-0.131823 0.276017,-0.239261 -0.182556,0.02534 0.170508,-0.270572 -0.185305,-0.01864 -0.441786,0.441279 -0.692496,0.410569 -0.257042,0.183659 -0.305223,0.649746 -0.533786,0.870256 -0.07895,0.14668 -0.135748,0.304696 -0.21632,0.450494 -0.07348,0.132965 -0.228397,0.213484 -0.248501,0.382045 -0.04787,0.09284 -0.07727,0.19506 -0.130774,0.284774 -0.018,0.03018 -0.05333,0.04577 -0.08,0.06866 0.004,-0.146901 0.01225,-0.293748 0.01196,-0.440702 -2.86e-4,-0.141727 -0.028,-0.283958 -0.01371,-0.424962 0.0089,-0.08746 0.0211,0.174562 0.03023,0.261999 0.03476,0.33272 0.05983,0.666444 0.06905,1.000923 0.004,0.410891 0.02739,0.8664478 -0.103674,1.2631358 -0.01689,0.0511 -0.06414,0.08901 -0.07929,0.140656 -0.03337,0.113727 -0.04304,0.233101 -0.06456,0.349652 -0.0355,0.174679 -0.09904,0.382326 -0.117239,0.562106 -0.04998,0.493692 -0.06728,0.988279 -0.189888,1.472334 -0.16323,0.823822 -0.409049,1.663153 -0.981179,2.30021 -0.169583,0.413185 -6.012902,-1.98508 -5.84332,-2.398265 z"
       inkscape:connector-curvature="0" />
    <path
       style="fill:#000000;stroke:#ffff00"
       id="path3625"
       d="m 23.782616,3.6582696 c 0.600446,1.18804 0.594871,2.541256 0.571906,3.839877 -0.01578,1.091551 -0.212671,2.185363 -0.596982,3.2080754 -0.189088,0.519087 -0.174963,1.078064 -0.226454,1.622298 -0.02777,1.03177 -0.223988,2.030981 -0.538877,3.011131 -0.358456,0.928238 -0.534173,1.910072 -0.831127,2.856895 -0.404256,1.029798 -0.570116,2.127335 -0.842631,3.194892 -0.18267,0.711225 -0.355845,1.428637 -0.632489,2.111246 -0.287039,0.708261 -0.6856,1.377674 -1.053952,2.04521 -0.108416,0.20641 -0.209922,0.4166 -0.325247,0.619231 -0.575244,1.01073 -0.100395,0.110433 -0.668759,1.028263 -0.43617,0.704354 -0.781429,1.470607 -1.158538,2.206937 -1.080748,2.29541 -2.289932,4.524285 -3.64762,6.667099 -0.773108,1.029675 -1.563665,2.057708 -2.451762,2.993074 -0.359546,0.378682 -0.259169,0.468318 -0.403532,0.261461 -0.06783,-0.04276 -0.105998,-0.09729 -0.148998,0.05653 -0.06403,0.229043 -0.0729,0.471446 -0.140076,0.699587 -0.180954,0.614586 -0.462321,1.07606 -0.8116679,1.596323 -0.442182,0.512879 -0.815058,1.089704 -1.28646,1.577858 -0.309401,0.320396 -0.491676,0.436326 -0.84042,0.697492 -2.003288,1.286257 -3.163596,1.804757 -5.871389,-0.01337 -0.8113777,-0.544793 -0.7182655,-2.049684 -0.721211,-2.929422 0.021605,-0.560406 -0.024235,-1.120139 -0.051408,-1.679478 0.05577,-0.50459 7.1917549,0.284109 7.1359859,0.7887 l 0,0 C 8.074662,40.758781 7.942303,41.426766 7.587357,41.997386 7.546097,41.918886 7.500027,41.842737 7.463563,41.761897 7.2230791,41.228691 7.2669211,40.441888 6.7567551,40.155752 5.6572251,39.539059 4.3251747,39.445394 3.0729964,39.299363 c -0.2889151,-0.03369 -1.129817,0.832599 -0.2913652,-0.01218 0.2914731,-0.247416 0.4750452,-0.426908 0.8085604,-0.617264 0.1179617,-0.06733 0.2508409,-0.104864 0.3720944,-0.166065 0.1083807,-0.0547 0.3551527,-0.260691 0.5174931,-0.222931 0.138354,0.13636 0.088802,-0.401088 0.023775,0.307804 -0.0068,0.07411 0.013021,0.296085 -0.00221,0.223243 -0.065942,-0.315322 -0.00966,-0.791695 0.00537,-1.074697 0.1048614,-0.502144 0.1857496,-1.009489 0.3052597,-1.50835 0.3280637,-1.369408 0.9527457,-2.639581 1.6047327,-3.87919 0.973166,-1.6165 0.437219,-0.756076 1.467801,-2.347784 0.958955,-1.481081 1.897881,-2.986469 3.0982835,-4.289786 0.20898,-0.220288 0.414714,-0.443702 0.626941,-0.660863 0.15202,-0.155555 0.322756,-0.29312 0.465633,-0.457112 0.521651,-0.598745 0.740272,-1.399072 1.273307,-1.993081 0.543092,-0.880795 0.906059,-1.852477 1.110313,-2.866994 0.376733,-1.151744 0.814173,-2.283051 1.139194,-3.451452 0.328945,-0.815698 0.66324,-1.626401 0.875375,-2.483071 0.190536,-0.808532 0.373726,-1.6175 0.511151,-2.437161 0.09931,-0.416136 0.213855,-0.829957 0.328919,-1.242004 0.03354,-0.120117 0.07208,-0.2389324 0.11508,-0.3559984 0.01317,-0.03586 0.04358,-0.06459 0.05299,-0.101619 0.02444,-0.09622 0.03166,-0.196001 0.04749,-0.294001 -0.04637,-0.603929 -0.243659,-1.199221 -0.177235,-1.81871 -0.04341,-1.046278 -0.140169,-2.114521 0.139217,-3.138352 -0.05328,-0.444873 6.238181,-1.198346 6.291459,-0.753473 z"
       inkscape:connector-curvature="0" />
    <path
       style="fill:#000000;stroke:#ffff00"
       id="path3627"
       d="m 7.2745141,2.5401496 c 0.133011,0.154099 0.28098,0.296461 0.399034,0.462299 0.979568,1.376049 1.438651,3.092898 1.850765,4.704193 0.272234,1.470274 0.7569169,2.8859774 1.1086309,4.3365694 0.222326,0.916952 0.377674,1.683511 0.572331,2.603681 0.08822,0.40375 0.172047,0.808486 0.264665,1.21125 0.08904,0.387183 0.200314,0.769285 0.280262,1.158447 0.265261,1.291208 0.417644,2.609172 0.632767,3.909402 0.132305,0.692759 0.177177,1.397487 0.279626,2.09433 0.05538,0.376698 0.140165,0.741512 0.181433,1.119973 -0.0414,-0.01895 -0.01911,0.149974 -0.04943,0.119386 -0.06005,-0.06058 -0.08304,-0.149064 -0.12737,-0.221939 -0.02748,-0.04518 -0.298699,-0.459242 -0.289906,-0.482491 0.01581,-0.04179 0.08545,0.02614 0.128179,0.03921 0.331075,0.295592 -3.8492359,4.977691 -4.1803109,4.682098 l 0,0 c -0.767351,-0.65002 -1.361456,-1.464984 -1.827515,-2.352702 -0.54649,-1.04837 -0.793818,-2.222651 -1.281747,-3.298995 C 4.3461017,20.397809 3.4629669,18.232176 3.1676493,15.830938 3.1072437,15.401756 3.0468382,14.972574 2.9864326,14.543392 2.9443999,14.170216 2.9101335,13.796084 2.8603345,13.423865 2.6757108,12.043911 2.3358349,10.689004 2.0168105,9.3357556 1.6580795,7.9817616 1.8756053,8.8366396 1.5526386,7.4835066 1.3146053,6.4862186 1.025136,5.4821446 1.1458162,4.4451636 1.0111114,4.0117996 7.1398091,2.1067846 7.2745141,2.5401496 z"
       inkscape:connector-curvature="0" />
    <text
       xml:space="preserve"
       style="font-size:54.59848785px;font-style:normal;font-weight:normal;line-height:177.99999714%;letter-spacing:0px;word-spacing:0px;fill:#000000;fill-opacity:1;stroke:none;font-family:Sans"
       x="31.656721"
       y="42.062397"
       id="text3816"
       sodipodi:linespacing="178%"
       transform="scale(0.86656337,1.1539837)"><tspan
         sodipodi:role="line"
         id="tspan3818"
         x="31.261721"
         y="42.062397"
         style="font-size:17.74450684px;font-style:normal;font-variant:normal;font-weight:normal;font-stretch:normal;text-align:center;line-height:177.99999714%;letter-spacing:-0.78999996px;word-spacing:0.16px;text-anchor:middle;font-family:Sans;-inkscape-font-specification:Newspaper"
         rotate="10.9 10.9 10.9 10.9 10.9 10.9 0"
         dy="0.2"
         dx="0.31999999">Downet</tspan></text>
    <path
       style="fill:#241c1c;stroke:#ffff00"
       id="path4602"
       d="m 5.1158932,38.209401 c 0.06786,1.06056 -0.135594,2.115805 -0.306128,3.158293 -0.128444,0.810711 -0.353622,1.602011 -0.414473,2.421694 -0.05463,0.782562 -0.214049,1.549231 -0.403209,2.308616 -0.05819,0.696596 -0.06365,1.398564 -0.122929,2.097068 -0.06986,0.84069 -0.262984,1.660269 -0.527219,2.459168 -0.03115,0.06509 -0.02092,0.06816 -0.03205,2.42e-4 -0.0036,0.102142 -0.0099,0.204225 -0.01088,0.306426 -3.55e-4,0.03593 0.01474,-0.07197 0.0089,-0.107428 -0.04851,-0.2952 -0.07419,-0.349198 -0.1539881,-0.58015 -0.00428,-0.03255 -0.020394,-0.0657 -0.012826,-0.09764 0.056742,-0.239494 1.2717191,-0.155571 1.4408891,-0.15409 0.715608,0.03886 1.435022,0.0078 2.15018,0.05701 0.07512,0.0052 -0.301065,-0.0015 -0.225877,0.0026 0.152543,0.0082 0.305458,0.0066 0.458187,0.0099 0.496808,0.03031 0.989536,0.07267 1.487317,0.07315 0.270974,8.91e-4 0.554694,-0.07946 0.812921,0.0027 0.221818,0.07056 -0.466181,0.0079 -0.697477,0.03405 -0.03443,0.0039 -0.11175,0.08049 -0.0881,0.05517 0.142386,-0.15245 0.04491,-0.04267 0.225276,-0.257568 0.268624,-0.379012 0.404987,-0.835832 0.613166,-1.250311 0.25562,-0.602673 0.617903,-1.150055 0.9552888,-1.708274 0.227497,-0.351192 0.492828,-0.653747 0.692182,-1.019446 0.182272,-0.261507 0.32123,-0.524912 0.287834,-0.846959 -0.08415,-0.633881 0.06079,-1.264507 0.220358,-1.874453 0.110384,-0.442765 0.215145,-0.888862 0.295208,-1.338306 0.0046,-0.04199 0.01629,-0.08381 0.01375,-0.125976 -0.0017,-0.0279 -0.01413,0.05437 -0.01639,0.08223 -0.0068,0.08373 0.04018,0.235374 -0.06651,0.106403 -0.08515,-0.10293 -0.155374,-0.217561 -0.239772,-0.321105 -0.386335,-0.470763 -0.580249,-1.061148 -0.805777,-1.619456 -0.119521,-0.221358 -0.109535,-0.547646 -0.270977,-0.749023 -0.01378,-0.01719 -0.03605,-0.02533 -0.05407,-0.038 -0.03646,-0.05729 -0.07292,-0.114569 -0.109383,-0.171854 -0.2225998,-0.349627 -0.4513978,-0.674494 -0.7529498,-0.961192 -0.285984,-0.266716 -0.606224,-0.520161 -0.970442,-0.671641 -0.309181,0.0074 -0.601707,-0.178971 -0.911417,-0.228377 0.175077,-0.0191 -0.519689,0.03671 -0.371548,0.07497 0.134321,0.03469 0.287645,-0.03951 0.415973,0.01319 0.09823,0.04034 -0.211472,0.0198 -0.317397,0.02729 -0.112384,0.008 -0.224973,0.0127 -0.337459,0.01905 -0.976441,0.0998 -1.902418,-0.197267 -2.870555,-0.211221 -0.10049,-0.0018 -0.401603,0.0033 -0.301471,-0.0053 0.136721,-0.01182 0.274663,0.0036 0.41167,-0.0042 0.08647,-0.0049 -0.17319,-0.0033 -0.259792,-0.0045 -0.114959,-0.0016 -0.406823,0.03999 -0.504924,-0.03009 0.0217,-0.01908 0.06794,-0.0285 0.06509,-0.05725 -0.0049,-0.04955 -0.09335,0.03966 -0.130333,0.073 -0.142886,0.1288 -0.2592471,0.294033 -0.3793578,0.442571 -0.1794839,0.238591 -0.3670946,0.49339 -0.4570092,0.782384 0.00444,0.106962 0.00236,0.01843 -0.030511,0.263921 -0.021449,0.184444 -2.62988358,-0.118888 -2.60843478,-0.303332 l 0,0 c 0.036592,-0.248518 0.015038,-0.08822 0.054896,-0.482117 0.1463148,-0.636095 0.4137336,-1.2238 0.8026044,-1.751219 0.45864708,-0.527371 0.91667258,-1.057295 1.56426628,-1.359637 0.1212621,-0.03939 0.2399155,-0.08797 0.3637863,-0.118171 0.6764188,-0.164919 1.5678178,-0.0549 2.2446978,-0.0698 0.37597,0.04129 0.747457,0.09905 1.122028,0.149924 0.09842,0.01337 0.196906,0.0272 0.295942,0.0348 0.08625,0.0066 0.344721,-0.0064 0.259396,0.0078 -0.145296,0.02426 -0.294232,0.01503 -0.441348,0.02254 0.867446,-0.04375 1.757368,-0.118045 2.599246,0.139404 0.457458,0.147737 0.930731,0.254662 1.3591778,0.479579 0.561153,0.329517 1.097863,0.697165 1.515749,1.20487 0.348209,0.416909 0.64327,0.867511 0.928577,1.329096 0.241309,0.394158 0.409811,0.817159 0.580154,1.245132 0.188198,0.391068 0.327317,0.806597 0.576045,1.165647 0.412688,0.587867 0.766413,1.14425 0.669642,1.90824 -0.05747,0.556187 -0.188003,1.098828 -0.292147,1.64719 -0.04738,0.168316 -0.09108,0.344932 -0.157361,0.507841 -0.0094,0.02312 -0.03476,0.03914 -0.03946,0.06366 -0.04337,0.226397 0.04318,0.475913 0.02604,0.699216 -0.02109,0.702135 -0.107475,1.475019 -0.611719,2.0139 -0.216384,0.306645 -0.352072,0.668117 -0.61441,0.93969 -0.280619,0.59691 -0.559272,1.194359 -0.937667,1.738314 -0.346991,0.530728 -0.442789,1.180169 -0.847786,1.679197 -0.319446,0.354051 -0.829255,0.943692 -1.3129498,1.049495 -0.331027,0.07241 -0.679185,0.03226 -1.012047,0.09571 -0.16581,0.0316 0.337592,4.48e-4 0.506388,6.72e-4 -0.476822,0.0059 -0.939819,0.110045 -1.415288,0.141093 -1.31844,0.05729 -2.643251,0.04593 -3.958434,-0.06754 C 2.8627567,52.662731 1.9406682,52.646897 1.24623,52.032756 1.1515328,51.913171 1.0332272,51.808961 0.96213852,51.674 0.60437842,50.994793 0.79533492,50.953074 0.69792672,50.353487 0.71588172,49.518135 0.90827532,48.711792 1.0552973,47.892882 1.1879517,47.171979 1.2646182,46.441823 1.306806,45.7107 1.3848,45.002919 1.572954,44.315951 1.6327623,43.605528 c 0.072589,-0.875219 0.2206669,-1.742777 0.3046949,-2.617015 0.1586801,-1.052067 0.2515244,-2.122749 0.567526,-3.143651 0.025777,-0.18462 2.636687,0.17992 2.61091,0.364539 z"
       inkscape:connector-curvature="0" />
    <path
       style="fill:#241c1c;stroke:#ffff00"
       id="path4604"
       d="m 13.078159,49.894506 c -0.139898,-0.875406 -0.124717,-1.770731 -0.08015,-2.653812 -0.01606,-0.468961 0.108962,-0.932543 0.0947,-1.39988 -0.01546,-0.392342 -0.01843,-0.784961 -0.01782,-1.177555 -0.01916,-0.526899 0.165205,-1.026345 0.290252,-1.530324 0.132836,-0.563575 0.393323,-1.080574 0.670945,-1.584077 0.27694,-0.437241 0.588784,-0.852356 0.932481,-1.239349 0.346125,-0.470608 0.715721,-0.915873 1.14675,-1.310493 0.833252,-0.639092 1.57344,-0.596473 2.578372,-0.570431 0.753137,0.187951 1.288626,0.756564 1.815177,1.289836 0.478983,0.42819 0.790009,0.965415 1.049481,1.544004 0.163743,0.487687 0.267287,0.998604 0.318074,1.510669 0.03466,0.06878 0.03555,0.14911 0.06607,0.218978 0.0073,0.01679 0.02684,0.02494 0.04025,0.03741 0.02488,0.05114 0.05221,0.101153 0.07464,0.153413 0.102121,0.237979 0.09957,0.261382 0.176116,0.523976 0.190347,0.740218 0.109897,1.49712 0.05211,2.247003 -0.01313,0.708381 -0.08926,1.399233 -0.315155,2.07262 -0.196109,0.547272 -0.436394,1.074044 -0.703475,1.589681 -0.279378,0.428747 -0.529405,0.871337 -0.860453,1.263038 -0.466902,0.495899 -1.056131,0.82491 -1.674252,1.093486 -0.868322,0.302769 -1.817457,0.395711 -2.718229,0.166588 -0.773554,-0.06374 -1.380348,-0.532289 -1.95246,-1.012109 -0.05438,-0.0393 -0.104558,-0.08521 -0.163151,-0.117912 -0.05793,-0.03233 -0.130542,-0.02927 -0.190454,-0.05776 -0.274237,-0.130397 -0.50162,-0.311972 -0.735373,-0.502851 -0.128755,-0.136057 1.795371,-1.956926 1.924126,-1.82087 l 0,0 c 0.35213,0.244454 0.819586,0.317723 1.132359,0.635318 0.300056,0.219612 0.578422,0.409574 0.961034,0.439425 0.246077,-0.01569 0.385331,-0.02082 -0.431607,-0.02642 -0.0475,-3.26e-4 0.0941,0.01439 0.14156,0.01642 0.22256,0.0095 0.443194,-0.03046 0.660635,-0.0721 0.08449,-0.01798 0.168123,-0.04064 0.253479,-0.05393 0.04488,-0.007 0.09304,0.0077 0.136089,-0.0067 0.215605,-0.0725 0.397216,-0.225181 0.602911,-0.317347 0.02125,0.0051 0.04996,0.03802 0.06243,0.02008 0.153916,-0.221388 0.205347,-0.513257 0.413567,-0.69834 0.224638,-0.412491 0.370303,-0.867792 0.545286,-1.30205 0.04201,-0.108049 0.104933,-0.208121 0.138041,-0.319223 0.109483,-0.367398 -0.05477,-0.787231 0.04841,-1.159565 0.03441,-0.477397 0.05988,-0.955398 0.115871,-1.430913 -0.153038,-0.451462 -0.392271,-0.877375 -0.42008,-1.365639 -0.02389,-0.257492 -0.07523,-0.521215 -0.166228,-0.762742 -0.173485,-0.338497 -0.447284,-0.59756 -0.710764,-0.868308 -0.01193,-0.01201 -0.669978,-0.670454 -0.451029,-0.408612 1.474306,0.0099 0.203006,-0.01197 0.179621,-0.03104 -0.02277,-0.01858 0.01623,-0.0565 0.02434,-0.08475 -0.01333,-0.0098 -0.02666,-0.01961 -0.03999,-0.02942 -0.370704,0.218667 -0.612977,0.623217 -0.883703,0.945881 -0.244528,0.319736 -0.542513,0.595525 -0.768201,0.929879 -0.217352,0.347549 -0.370482,0.73639 -0.502708,1.122696 -0.07518,0.179403 -0.112887,0.362058 -0.170844,0.547124 -0.01236,0.03948 -0.04925,0.07112 -0.05273,0.112345 -0.0057,0.06757 7.82e-4,0.135622 0.0012,0.203432 6.17e-4,0.392594 -0.0024,0.785213 -0.01781,1.177555 -0.01426,0.467337 0.110758,0.930919 0.0947,1.39988 0.04457,0.883081 0.05975,1.778406 -0.08015,2.653812 0,0.186271 -2.634258,0.186271 -2.634258,0 z"
       inkscape:connector-curvature="0" />
    <path
       style="fill:#241c1c;stroke:#ffff00"
       id="path4606"
       d="m 24.33465,39.275385 c 0.192606,1.174569 0.1843,2.37431 0.185147,3.561664 0.0085,1.015233 -0.09158,2.025766 -0.123785,3.039577 -0.02873,0.402316 -0.01501,0.805201 -0.03465,1.208168 -0.01202,0.24666 -0.04443,0.162497 -0.0037,0.25689 -0.231363,-0.758086 -0.100187,-0.683187 -1.46791,-0.957195 -0.299851,-0.06007 -0.63503,0.565035 -0.447209,0.107187 0.04104,-0.100041 0.08513,-0.198805 0.127691,-0.298207 0.209043,-0.540849 0.480706,-1.052972 0.806322,-1.532189 0.363166,-0.601409 0.669187,-1.237004 0.987857,-1.863158 0.473487,-0.92517 0.927876,-1.938103 1.725451,-2.639873 0.146985,-0.12933 0.313527,-0.234573 0.47029,-0.351859 1.115352,-0.571879 2.039688,-0.265491 2.633123,0.828879 0.2787,0.513959 0.333945,1.132853 0.427659,1.698331 0.134613,0.746564 0.157033,1.528183 0.468031,2.231082 0.35695,0.637076 0.556498,1.341903 0.882377,1.994759 0.05959,0.111605 0.117526,0.224113 0.178783,0.334814 0.199926,0.361301 0.37652,0.729808 0.567702,1.095543 0.01888,0.03611 0.09344,0.132663 0.0649,0.10358 -0.06551,-0.06677 -0.117978,-0.145191 -0.176967,-0.217787 -0.579269,0.02127 -1.158537,0.04255 -1.737806,0.06382 -0.06577,0.0563 -0.136173,0.230221 -0.197299,0.168911 -0.07522,-0.07545 0.03171,-0.210755 0.05114,-0.31551 0.119362,-0.643271 0.283262,-1.261516 0.469533,-1.88863 0.503708,-1.566761 1.162694,-3.129625 2.216501,-4.413236 0.193435,-0.235618 0.416933,-0.444857 0.6254,-0.667286 0.166312,-0.131017 0.332624,-0.262035 0.498936,-0.393053 0.123969,-0.161945 2.414223,1.591247 2.290254,1.753193 l 0,0 c -0.08739,0.126575 -0.174788,0.253151 -0.262182,0.379727 -0.485012,0.611726 -0.980433,1.226899 -1.37402,1.903775 -0.421111,0.72421 -0.7337,1.509602 -1.086707,2.267084 -0.295386,0.739631 -0.513513,1.547787 -0.896431,2.249078 -0.121525,0.222566 -0.160245,0.559805 -0.397836,0.648428 -0.599406,0.223581 -1.271701,0.140997 -1.907551,0.211496 -0.148873,-0.127929 -0.310226,-0.242626 -0.446617,-0.383786 -0.22749,-0.235444 -0.309926,-0.426925 -0.467902,-0.699728 -0.244261,-0.421805 -0.489975,-0.843361 -0.669233,-1.298641 -0.223893,-0.653593 -0.430564,-1.313599 -0.76824,-1.91983 -0.125023,-0.261177 -0.26006,-0.52553 -0.35628,-0.799468 -0.240404,-0.684424 -0.32793,-1.410734 -0.409305,-2.127731 -0.0138,-0.235047 -0.0239,-0.470358 -0.04239,-0.705083 -0.004,-0.05103 -0.05772,-0.122747 -0.01621,-0.152704 0.03918,-0.02828 0.07717,0.06355 0.124157,0.0748 1.247224,0.298556 0.85766,0.449287 1.512058,-0.03294 0.04879,-0.121988 0.06696,-0.15348 -0.118074,0.142142 -0.08573,0.13697 -0.165134,0.277808 -0.246549,0.417388 -0.334584,0.573627 -0.668175,1.147762 -1.014002,1.71477 -0.4,0.577184 -0.824212,1.131717 -1.218855,1.711494 -0.229317,0.454072 -0.474757,0.899803 -0.629653,1.388219 -0.1982,0.398616 -0.399597,0.9262 -0.739391,1.224799 -0.217319,0.190973 -0.444955,0.474172 -0.73405,0.463095 -1.572772,-0.06026 -1.487294,-0.25565 -1.913837,-1.159956 -0.08981,-0.605928 -0.08428,-1.212673 -0.104271,-1.823601 -0.03221,-1.013811 -0.132288,-2.024344 -0.123784,-3.039577 8.47e-4,-1.187354 -0.0075,-2.387095 0.185146,-3.561664 0,-0.18627 2.634258,-0.18627 2.634258,0 z"
       inkscape:connector-curvature="0" />
    <path
       style="fill:#241c1c;stroke:#ffff00"
       id="path4608"
       d="m 40.269212,41.29894 c 0.590487,1.149482 0.878388,2.431389 1.002255,3.710295 0.09375,0.96971 -0.0985,1.921793 -0.236865,2.875199 -0.06213,0.609309 -0.04414,1.220695 -0.136719,1.827033 -0.04727,0.413105 -0.292564,1.71003 -0.806921,1.757034 -0.650788,0.05947 -1.285893,-0.23394 -1.928839,-0.35091 -0.544851,-0.898379 -0.59326,-1.913738 -0.49564,-2.931408 0.06491,-0.385511 0.164889,-0.749103 0.133087,-1.140662 -0.113525,-0.81461 -0.140819,-1.630173 -0.0942,-2.450523 0.0082,-0.148236 0.07912,-0.83186 0.06576,-0.36143 -0.41891,-0.555044 -0.479208,-1.271338 -0.568014,-1.938676 -0.06317,-0.466749 -0.13854,-0.946907 -0.270997,-1.399951 -0.01967,-0.08012 -0.04141,-0.159764 -0.05902,-0.240362 -0.04112,-0.188101 -0.07112,-0.361326 -0.09037,-0.553235 -0.0114,-0.113641 -0.0034,-0.436153 -0.06054,-0.337241 0.114531,0.280552 0.201938,0.623741 0.577507,0.710451 0.31101,0.0718 0.637462,-0.04001 0.95441,-0.07778 0.02885,-0.0034 0.07342,-0.07389 0.07473,-0.04486 0.002,0.04547 -0.048,0.07736 -0.07151,0.116343 -0.04595,0.07617 -0.09124,0.15273 -0.136859,0.229095 -0.312815,0.581459 -0.684043,1.127502 -1.011978,1.69986 -0.215426,0.407547 -0.441578,0.807242 -0.617674,1.233516 -0.228498,0.552906 -0.483266,1.093879 -0.711635,1.646863 -0.205065,0.382981 -0.283101,0.651715 -0.338061,1.068687 -0.05626,0.585017 -0.251971,1.144476 -0.481011,1.681571 -0.105315,0.208683 -0.201102,0.421779 -0.296624,0.635031 -0.0639,0.176413 -2.558754,-0.727285 -2.494853,-0.903698 l 0,0 c 0.09769,-0.229018 0.168219,-0.467744 0.28035,-0.690703 0.176779,-0.32831 0.339844,-0.675611 0.368601,-1.051291 0.08619,-0.523326 0.146783,-1.055295 0.362316,-1.546202 0.223758,-0.643076 0.535709,-1.243165 0.820249,-1.860316 0.240968,-0.413881 0.476388,-0.828824 0.622034,-1.287611 0.313449,-0.641443 0.683497,-1.249376 1.047604,-1.863424 0.211212,-0.331007 0.650981,-1.067416 1.015906,-1.208909 0.9599,-0.372184 1.407796,-0.475801 2.161333,0.140113 0.167893,0.13723 0.248637,0.355331 0.372955,0.532996 0.150548,0.476815 0.210486,0.963786 0.331531,1.448321 0.111362,0.541359 0.269825,1.072839 0.350254,1.620022 0.02446,0.181928 0.06621,0.46499 0.07487,0.645986 0.0022,0.04584 -0.0074,0.09149 -0.0106,0.13726 -0.0014,0.01977 0.01232,0.04716 -0.0033,0.05937 -0.0121,0.0095 -0.04162,-0.04281 -0.03631,-0.02839 0.01227,0.0333 0.03907,0.05925 0.05861,0.08887 0.30327,0.521968 0.475128,1.070626 0.495943,1.679426 0.06283,0.833672 0.05195,1.664047 -0.0339,2.496178 -0.02969,0.403695 -0.07669,0.80666 -0.05223,1.212048 0.004,0.131135 0.06767,1.495514 0.03152,1.507958 -0.06429,0.02213 -0.0973,-0.09501 -0.145945,-0.142514 -0.590074,-0.05692 -1.184488,-0.262097 -1.770222,-0.17076 -0.440181,0.06864 -0.419744,0.787023 -0.341753,0.404236 0.01732,-0.08503 0.02362,-0.171963 0.03744,-0.257637 0.01253,-0.07766 0.02773,-0.154875 0.04159,-0.232313 0.07476,-0.59225 -0.06176,-1.194572 0.047,-1.788835 0.07592,-0.743374 0.210563,-1.49487 0.107279,-2.241673 -0.244314,-1.147782 -0.626056,-2.270316 -0.724889,-3.44514 -0.04365,-0.183308 2.548716,-0.800616 2.592366,-0.617308 z"
       inkscape:connector-curvature="0" />
    <path
       style="fill:#241c1c;stroke:#ffff00"
       id="path4610"
       d="m 44.171663,43.957158 c 0.863822,0.124778 1.710837,0.339264 2.556143,0.552112 0.08156,0.01729 0.162437,0.03826 0.244696,0.05187 0.264093,0.04371 0.524417,-0.05819 -0.475312,0.01759 -0.02007,0.0015 -0.004,0.06056 0.016,0.05823 0.03907,-0.0046 0.07547,-0.02224 0.113207,-0.03336 0.650913,-0.255157 1.345648,-0.206076 2.032172,-0.173989 0.337393,0.05001 1.815382,-0.0089 0.334169,0.05359 0.206726,-0.0022 0.438357,-0.128428 0.598217,-0.184279 -0.132842,0.08335 -0.156736,0.457923 -0.219195,0.519879 -0.01692,0.01678 -0.03795,-0.03039 -0.05033,-0.05076 -0.06456,-0.106247 -0.137069,-0.302917 -0.179618,-0.408376 -0.225885,-0.584592 -0.20015,-1.202648 -0.143536,-1.814165 0.08057,-0.362592 -0.103927,-0.65126 -0.240334,-0.974285 -0.05682,-0.134547 -0.105542,-0.272369 -0.158314,-0.408553 -0.187499,-0.486419 -0.401821,-0.962017 -0.541758,-1.465641 -0.09464,-0.340607 -0.141921,-0.690845 -0.236596,-1.031151 -0.0324,-0.03473 -0.03577,0.275032 -0.02131,0.277834 0.201848,0.03912 0.410184,0.02902 0.615276,0.04354 -0.398538,0.0071 -0.790757,0.117884 -1.186717,0.169677 -0.216486,-0.0448 -0.299818,0.04259 -0.440032,0.190726 -0.351146,0.421538 -0.691557,0.851402 -1.066184,1.252723 -0.313452,0.322634 -0.306805,0.640761 -0.416869,1.075918 -0.261318,0.788016 -0.60007,1.552729 -1.001434,2.279616 -0.253287,0.398826 -0.258738,0.851858 -0.331793,1.305934 -0.10238,0.907871 -0.372277,1.780795 -0.632497,2.652582 -0.228909,0.576024 -0.157521,1.190178 -0.194649,1.793562 0.04479,0.207527 -0.169518,0.791514 -0.111414,0.980727 0.01083,0.03528 0.0091,-0.07325 0.01369,-0.109877 -0.223797,-1.07382 0.149538,0.581683 -0.215276,-0.569458 -0.01696,-0.05352 0.09409,-0.08196 0.149982,-0.07665 0.170378,0.01617 0.333561,0.07697 0.501264,0.111114 0.569307,0.05168 1.121556,0.232152 1.680427,0.352158 0.469698,0.05683 0.912648,0.281367 1.390206,0.273895 -0.186644,-0.0057 -0.373204,-0.01616 -0.559932,-0.01704 0.101959,0.01616 0.09965,0.02124 0.21115,0.01322 0.183439,-0.0132 0.367201,-0.04899 0.549334,-0.07339 0.642475,-0.07729 1.291311,-0.03245 1.936175,-0.01352 -0.213112,0.0038 -0.426223,0.0075 -0.639335,0.01128 0.173707,-0.06751 1.128445,2.38907 0.954738,2.45658 l 0,0 c -0.344777,0.0226 -0.689553,0.04519 -1.03433,0.06779 -0.108063,-0.0032 -0.286688,-0.0089 -0.395542,-0.01101 -0.06154,-0.0012 -0.246193,-0.0011 -0.18465,-0.0023 0.975754,-0.01989 0.394608,0.0069 0.177531,-0.02053 -0.622118,-0.0038 -1.211085,0.267634 -1.846051,0.09707 -0.588212,-0.07272 -1.16187,-0.212049 -1.738027,-0.348476 -0.542672,-0.14563 -1.09838,-0.23286 -1.644546,-0.363881 -0.887453,-0.223636 -1.540708,-0.472276 -1.858764,-1.443252 -0.05518,-0.464237 -0.04929,-0.924038 -0.03862,-1.39142 -0.0013,-0.792591 -0.07647,-1.588125 0.138979,-2.364909 0.22017,-0.823436 0.513342,-1.624557 0.717119,-2.451503 0.153925,-0.593801 0.188944,-1.222539 0.451511,-1.786592 0.256162,-0.734971 0.599107,-1.429526 0.906583,-2.143247 0.302016,-0.547127 0.385828,-1.199468 0.788669,-1.698308 0.357096,-0.510552 0.793874,-0.96251 1.185595,-1.446855 0.506435,-0.527796 1.054144,-0.963145 1.795646,-1.085597 0.432302,0.02351 0.837633,-0.143605 1.259866,-0.211962 0.348831,0.0098 0.699595,-0.0085 1.046493,0.0295 0.74522,0.08157 1.324918,0.748264 1.657204,1.358217 0.370166,0.822876 0.633996,1.690094 0.908858,2.548221 0.247364,0.787375 0.483138,1.600321 0.346675,2.433735 -0.03802,0.246319 -0.111605,0.444051 0.01137,0.675175 0.390718,0.888175 0.594927,1.682913 -0.06451,2.53715 -0.103235,0.09775 -0.198486,0.204697 -0.309704,0.293262 -0.363589,0.289533 -0.838987,0.429552 -1.266274,0.588856 -0.709202,0.06543 -1.398939,0.129702 -2.108382,0.06032 -0.487575,-0.01877 0.06077,0.0053 0.287072,-0.01105 0.05859,-0.0042 -0.366197,-0.07195 -0.350464,-0.08241 -0.189155,0.05617 -0.393038,0.191891 -0.588158,0.210346 -0.562835,0.05324 -1.116596,0.0352 -1.672939,-0.04256 -0.820012,-0.142728 -1.638989,-0.342514 -2.41502,-0.645382 -0.172408,-0.07088 0.829985,-2.509106 1.002394,-2.438226 z"
       inkscape:connector-curvature="0" />
    <path
       style="fill:#241c1c;stroke:#ffff00"
       id="path4612"
       d="M 54.622274,51.587722 C 53.827148,51.493382 53.004865,51.149791 52.406362,50.605349 52.271366,50.482546 52.161434,50.334741 52.03897,50.199437 51.451282,49.281115 51.60229,48.7134 51.920759,47.78546 c 0.04918,-0.271413 -0.02824,-0.556424 -0.05402,-0.82929 -0.06069,-0.366708 -0.0147,-0.743958 -0.04725,-1.111054 -0.01395,-0.157353 -0.06337,-0.309564 -0.09065,-0.46516 -0.117192,-0.640632 -0.159067,-1.288137 -0.124745,-1.937796 0.06882,-0.67043 0.0086,-1.338901 -0.03211,-2.008884 -0.06151,-1.137376 -0.09462,-2.279763 0.01625,-3.414763 0.08691,-0.498526 0.07935,-0.992481 0.04948,-1.494736 -0.0021,-0.101521 -0.0041,-0.203041 -0.0062,-0.304562 4.67e-4,-0.191816 2.713148,-0.185208 2.712681,0.0066 l 0,0 c -0.0027,0.102348 -0.0053,0.204697 -0.008,0.307045 -0.03313,0.494948 -0.05009,0.980374 0.04463,1.471375 0.126067,1.142684 0.111899,2.295616 0.05161,3.442478 -0.04694,0.682625 -0.126507,1.36238 -0.153107,2.046267 0.01032,0.523257 0.04608,1.043938 0.153247,1.557797 0.07048,0.572094 0.06312,1.145673 0.09781,1.719991 0.03958,0.55122 0.06883,1.112582 -0.05939,1.655031 -0.05866,0.210378 -0.05837,0.226312 -0.12696,0.416007 -0.01358,0.03755 -0.01733,0.140935 -0.04414,0.111345 -0.04662,-0.05146 -0.03762,-0.39479 -0.126913,-0.466485 0.575646,0.301334 1.175447,0.540342 1.765744,0.810358 0.161976,0.09309 -1.15445,2.383776 -1.316426,2.29069 z"
       inkscape:connector-curvature="0" />
    <path
       style="fill:#241c1c;stroke:#ffff00"
       id="path4614"
       d="m 50.930542,36.868321 c 0.463882,0.415912 0.923443,0.837008 1.477842,1.127387 0.245328,0.0036 -0.182124,-0.0087 0.202175,0.03611 0.02691,0.0031 0.08852,-0.05185 0.06146,-0.05317 -0.205434,-0.01003 -0.822609,0.0061 -0.61696,0.0096 0.320007,0.0054 0.6401,-0.0025 0.960151,-0.0038 0.08503,0.0171 0.172587,0.02453 0.255078,0.05131 0.274968,0.08928 0.379274,0.164451 0.626614,0.267082 0.185467,0.07696 0.369166,0.110723 0.557675,0.186736 0.134342,0.04967 0.271096,0.09753 0.415952,0.07249 0.02941,-0.0051 0.116018,-0.02133 0.08628,-0.02398 -0.185471,-0.01652 -0.744242,-0.02839 -0.558323,-0.01807 0.320109,0.01777 0.640638,0.02694 0.960957,0.04042 0.653019,0.102884 1.160588,0.508859 1.669098,0.895915 0.392221,0.301593 0.739804,0.654124 1.08177,1.010077 0.114419,0.152108 -2.036704,1.77024 -2.151123,1.618132 l 0,0 c -0.265428,-0.273373 -0.535375,-0.543578 -0.842623,-0.770803 -0.203986,-0.156825 -0.359556,-0.291594 -0.602793,-0.264368 0.194165,0.002 0.776658,0.0083 0.582496,0.006 -0.82131,-0.0097 -1.295244,0.0071 -2.030384,-0.310275 -0.240443,-0.07884 -0.552179,-0.2561 -0.772524,-0.30445 -0.0189,-0.0041 0.159778,0.126869 -0.04961,0.03013 0.216929,-0.0073 0.867484,-0.03445 0.650787,-0.02202 -0.900814,0.05165 -1.322249,0.05353 -2.121987,-0.295674 -0.844539,-0.427117 -1.617585,-1.014985 -2.072489,-1.865219 -0.100378,-0.157719 2.130097,-1.577278 2.230475,-1.41956 z"
       inkscape:connector-curvature="0" />
    <path
       style="fill:#241c1c;stroke:#ffff00"
       id="path4616"
       d="m 53.86825,37.045704 c -0.506626,-0.729886 -0.68921,-1.608415 -0.756324,-2.478447 0.0062,-0.135285 0.0051,-0.271097 0.01854,-0.405857 0.01186,-0.119087 0.03727,-0.236438 0.05718,-0.354446 0.06518,-0.386332 -0.07937,0.175212 0.129102,0.308105 0.478675,0.305144 1.057136,0.414047 1.585704,0.621071 0.121056,-0.07725 0.232141,-0.172983 0.363167,-0.231759 0.02686,-0.01205 -0.01728,0.05664 -0.03093,0.08272 -0.04285,0.08185 -0.09047,0.161161 -0.13817,0.240286 -0.196682,0.326225 -0.399175,0.649075 -0.606859,0.968371 -0.09249,0.173499 -2.546141,-1.134453 -2.453655,-1.307953 l 0,0 c 0.284782,-0.42554 0.569276,-0.851972 0.885482,-1.255241 0.09024,-0.115089 0.169976,-0.240729 0.277556,-0.339805 0.192306,-0.177103 0.411381,-0.322731 0.617071,-0.484097 0.5982,0.191404 1.25508,0.252655 1.794599,0.57421 0.297387,0.177244 0.189686,1.028162 0.20828,1.355053 0.110925,0.687779 0.496559,1.308525 0.595364,2.002387 0.04988,0.180037 -2.496227,0.885434 -2.546106,0.705397 z"
       inkscape:connector-curvature="0" />
  </g>
</svg>
